<svg version="1.1" width="56" height="56" xmlns="http://www.w3.org/2000/svg" viewBox="0 0 729 994.9" shape-rendering="geometricPrecision">
 <style type="text/css">
  .st0{fill:#FFFFFF;}
	.st1{fill-rule:evenodd;clip-rule:evenodd;fill:#2F7AEA;}
	.st2{fill:#94A6C3;}
	.st3{fill:#1B314F;}
	.st4{fill:#FFD923;}
	.st5{fill:#D82122;}
 </style>
 <metadata>
  <sfw xmlns="ns_sfw;">
   <slices>
   </slices>
   <sliceSourceBounds bottomLeftOrigin="true" height="994.9" width="729" x="-444" y="121.5">
   </sliceSourceBounds>
  </sfw>
 </metadata>
 <g>
  <path class="st0" d="M67,767.9h40v160h40v-200h-40C85,727.9,67,745.9,67,767.9z">
  </path>
  <path class="st0" d="M187,927.9h40v-80c0-22-18-40-40-40V927.9z">
  </path>
  <path class="st0" d="M267,807.9v120h40v-80h40v40c0,22,18,40,40,40v-80c0-22-18-40-40-40H267z">
  </path>
  <path class="st0" d="M627,807.9h-40v-40c0-22-18-40-40-40v160h-80v-40h40v-40h-40c-22,0-40,18-40,40v40c0,22,18,40,40,40h120v-80
		h40v40c0,22,18,40,40,40v-80C667,825.9,649,807.9,627,807.9z">
  </path>
  <path class="st0" d="M187,767.9h40c0-22-18-40-40-40V767.9z">
  </path>
  <path class="st1" d="M129.4,967.9v26.2h-3.7L111.3,976v18.1H107v-26.2h3.7l14.4,18.2v-18.2H129.4z M210.7,994.1h-15.5v-26.2h15.1
		v4.3h-10.5v6.5h9.4v4.3h-9.4v6.8h10.9V994.1z M276.6,972.2h8.5v21.9h4.6v-21.9h8.5v-4.3h-21.6V972.2z M396,967.9h4.4l-7.5,26.2
		h-4.3l-6.3-18.9l-6.2,18.9h-4.3l-7.8-26.2h5.2l5.3,18.7l5.8-18.7h4.6l6,18.7L396,967.9z M470.1,971.8c-2.5,2.6-3.8,5.8-3.8,9.6
		c0,4,1.3,7.3,3.9,9.8c2.6,2.5,5.8,3.7,9.8,3.7c3.9,0,7.2-1.3,9.8-3.8s3.9-5.8,3.9-9.7c0-4-1.3-7.2-3.9-9.8
		c-2.6-2.5-5.8-3.7-9.8-3.7S472.7,969.2,470.1,971.8z M473.7,988c-1.7-1.7-2.5-3.9-2.5-6.6s0.8-4.9,2.5-6.6s3.8-2.6,6.3-2.6
		s4.5,0.9,6.2,2.6c1.7,1.8,2.5,4,2.5,6.6s-0.8,4.8-2.4,6.6c-1.6,1.8-3.7,2.6-6.4,2.6C477.4,990.6,475.3,989.7,473.7,988z M564,984.3
		v9.8h-4.6v-26.2c1.3,0,2.7,0,4.2,0s2.8,0,3.7,0c6.3,0,9.5,2.7,9.5,8.1c0,2-0.5,3.6-1.5,4.9c-1,1.2-2.2,2.1-3.5,2.6l8.2,10.7h-5.6
		l-7.2-9.8L564,984.3L564,984.3z M567.2,972.2c-0.1,0-0.3,0-0.6,0s-0.7,0-1.2,0H564v7.8h3c1.5,0,2.7-0.4,3.6-1.1
		c0.9-0.7,1.4-1.7,1.4-3C572,973.5,570.4,972.2,567.2,972.2z M645.9,994.1h4.6v-13.5l10.7,13.5h5.8l-11.4-14l10.8-12.2h-5.5
		l-10.3,12.4v-12.4H646L645.9,994.1L645.9,994.1z">
  </path>
  <path class="st0" d="M173.5,378l19.2-145L25.5,116.9l152.8,51.7l36.1-55.3l131.7-81.8l290.6,160l15,244.2L522.4,615.6l-102.3,15.6
		l52.9-96.9v-93.2l-38.4-72.7l-39.1-25.9l-60.2,62v65.6L288.4,514l-59.6,7.2l-26.5,15l-43.2-13.8l-18-65l32.5-45.7V378H173.5z">
  </path>
  <path class="st2" d="M440.6,115.7c-31.9-6.6-66.8-4.8-66.8-4.8s-11.4,52.9-82.4,66.8C292,177.7,385.2,209.6,440.6,115.7z">
  </path>
  <path class="st2" d="M469.5,595.8c38.5-30.1,67.4-71.6,80.6-118.5c0.6-1.8,6-4.8,9.6-7.2c6-3.6,12-6.6,13.2-11.4
		c2.4-13.8,3.6-28.3,3.6-42.7c0-5.4-5.4-10.8-10.8-16.2c-4.2-3.6-8.4-7.8-8.4-10.8c-6-54.7-31.3-105.9-71.6-143.2l-4.2,4.2
		c39.1,36.7,64.4,86.6,69.8,139.6c0.6,4.8,5.4,9.6,10.2,14.4c4.2,3.6,9,9,9,11.4c0,13.8-1.2,27.7-3.6,41.5c-0.6,2.4-6,4.8-10.2,7.2
		c-6,3-11.4,6-12.6,10.8c-14.4,51.1-47.5,95.6-91.4,124.5c7.8-16.8,32.5-71.6,45.7-99.3l-2.4-89l-76.4-74l-43.3,6l-47.5,77
		c0,0,22.3,28.3-9,61.4c-30.7,32.5-54.7,39.7-54.7,39.7l-22.3-12c6.6-8.4,19.9-21.1,30.1-29.5c17.4-14.4,34.9-15.6,34.9-31.3
		c0.6-32.5-34.3-23.5-34.3-23.5l-12.6,12l-5.4,44.5L229,514.5l-3-0.6l-43.3-9.6c0,0,26.5-13.8,30.7-29.5c4.2-15-8.4-65-9-68
		c0.6,0.6,12.6,10.8,18,27.7c9.6-26.5,22.3-51.7,25.9-54.1c3.6-2.4,52.3-28.3,52.3-28.3l-16.2,42.7l12-6.6l28.9-71
		c0,0,28.3-13.8,49.3-13.8c37.9-0.6,93.8-46.9,68.6-129.9c7.2,3,132.3,65.6,154,188.3C613.2,456.2,559.7,544.6,469.5,595.8z">
  </path>
  <path class="st3" d="M326.3,129c13.8-16.2,8.4-40.3,8.4-40.3l-40.3,59.6C293.8,148.2,308.8,148.8,326.3,129z">
  </path>
  <path class="st3" d="M190.9,454.4l4.8-24.1c0,0-19.9,34.9-21.7,39.7c-1.8,5.4,1.2,15,9,14.4s17.4-12,17.4-20.5
		C200.6,453.2,190.9,454.4,190.9,454.4z">
  </path>
  <path class="st3" d="M548.3,71.8c0,0,30.1,1.2,61.4,4.8C539.3,21.3,472.5,5,418.4,5c-74.6,0-125.1,30.7-128.1,32.5l23.5-37.3
		c0,0-93.8-9-126.9,90.2c-8.4-21.1-16.2-51.7-16.2-51.7s-48.9,42.7-26.1,113.7c-55.9-20.5-136-48.7-139-49.3
		c-4.2-0.6-5.4,1.2-5.4,1.2s-1.2,1.8,2.4,4.8c6.6,5.4,132.9,98.7,160.6,116.7c-6,21.7-6,31.9,0,42.1c8.4,13.8,9,21.1,7.8,31.3
		c-1.2,10.2-12,98.7-14.4,109.5c-2.4,10.8-27.7,49.3-26.5,60.8s16.8,60.2,30.7,65.6c10.2,3.6,35.5,11.4,52.3,11.4
		c6,0,11.4-1.2,13.8-3.6c10.2-9,13.2-10.8,20.5-10.8c0.6,0,1.2,0,1.8,0c3,0,6.6,0.6,10.8,0.6c9.6,0,22.3-1.8,31.3-10.2
		c13.2-13.2,36.1-31.3,43.3-39.7c9-11.4,13.8-27.1,11.4-42.7c-1.8-14.4,6-27.1,15-39.7c11.4-15,32.5-42.1,32.5-42.1
		C435.2,389.4,461,437,461,489.9c0,93.8-81.8,169.6-182.9,169.6c-15.6,0-30.7-1.8-45.7-5.4c46.3,16.2,85.4,21.7,117.3,21.7
		c68,0,104.1-24.7,104.1-24.7s-12.6,16.2-33.1,34.9c0.6,0,0.6,0,0.6,0c112.5-15.6,167.3-108.3,167.3-108.3s-4.2,30.1-9.6,50.5
		c149.8-112.5,124.5-253.3,123.9-258.1c1.2,1.8,16.2,19.9,24.1,29.5C751,151.8,548.3,71.8,548.3,71.8z M317.9,467.6
		c-2.4,3-12.6,12-19.9,18.6s-15,13.2-21.1,19.2c-2.4,2.4-7.2,3.6-14.4,3.6c-2.4,0-4.8,0-6.6,0c-1.2,0-2.4,0-3.6,0s-1.8,0-2.4,0
		c-1.8,0-3.6,0-5.4,0c9-12,35.5-39.7,44.5-45.7c10.8-7.2,16.2-14.4,9.6-27.1c-6.6-12.6-24.1-9.6-24.1-9.6s10.2-4.2,19.2-4.2
		c-11.4-3-25.9,0-32.5,6.6c-7.2,6.6-6,30.1-9,45.1c-3,15.6-13.2,23.5-28.9,37.9c-8.3,8-14.3,10.4-19.1,10.4
		c-10.2-1.8-22.3-4.8-30.7-7.8c-6-7.8-15-33.7-17.4-44.5c1.8-6,9-18.6,12.6-25.9c7.2-13.8,11.4-21.7,12.6-28.9
		c2.4-10.2,10.2-73.4,13.2-99.9c7.8,10.2,18.6,27.1,16.2,37.9c17.4-24.7,4.8-48.7-1.2-58.4c-5.4-9.6-12.6-28.9-6.6-49.3
		c6-20.5,27.7-77,27.7-77s7.2,12.6,17.4,10.2c10.2-2.4,92.6-126.3,92.6-126.3s22.3,48.7-1.2,84.2c-24.1,35.5-47.5,42.1-47.5,42.1
		s33.1,6,63.8-16.2c12.6,29.5,24.7,60.2,25.3,64.4c-1.8,4.2-25.9,62-28.3,65.6c-1.2,1.2-9.6,3.6-15.6,4.8c-10.2,3-16.2,4.8-18.6,6.6
		c-4.2,3.6-23.5,56.5-32.5,82.4c-10.8,3-21.7,9-29.5,21.1c4.2-3,17.4-4.8,27.1-6c8.4-0.6,34.3,13.2,40.9,39.1c0,0.6,0,0.6,0,1.2
		C325.7,451.4,322.7,460.4,317.9,467.6z M261.3,474.9c5.4-7.8,4.8-21.1,5.4-25.3s1.8-12,6.6-13.2c4.8-1.2,16.2,0.6,16.2,9
		c0,7.8-8.4,9.6-14.4,15C270.9,464.6,262.5,473.7,261.3,474.9z M501.3,360c6-30.7,6.6-57.1,4.8-78.8c23.5,31.3,37.9,69.2,42.1,108.3
		c0.6,4.8,5.4,9.6,10.2,14.4c4.2,3.6,9,8.4,9,11.4c0,13.8-1.2,27.7-3.6,41.5c-0.6,1.8-6,4.8-10.2,7.2c-6,3-11.4,6-12.6,10.8
		c-13.2,46.3-41.5,87.2-79.4,116.1C517.6,532.6,544.7,436.4,501.3,360z M463.4,596.4c39.1-30.1,69.2-72.2,82.4-119.7
		c0.6-1.8,6-4.8,9.6-7.2c6-3,12-6.6,13.2-11.4c2.4-13.8,3.6-28.3,3.6-42.7c0-5.4-5.4-10.8-10.8-16.2c-3-3.6-7.8-7.8-7.8-10.8
		c-4.8-43.9-22.3-85.4-49.3-119.7c-12-72.2-60.2-94.4-61.4-95c1.2,1.8,32.5,46.9,10.8,99.9c-22.3,53.5-79.4,45.1-84.2,45.7
		c-4.8,0-23.5,24.1-46.9,68.6c-3-1.2-15.6-4.2-30.1-1.8c10.8-30.1,27.1-72.8,30.1-76.4c1.2-1.2,10.2-3.6,16.2-5.4
		c11.4-3,16.8-4.8,18.6-7.2c1.2-1.8,7.2-15.6,13.2-30.1c5.4,0,19.2-1.2,20.5-1.8c1.2-1.2,12.6-30.7,12.6-34.3
		c0-3-23.5-61.4-32.5-83.6c4.2-4.8,8.4-10.8,12.6-17.4c123.6,12.9,219.8,117.6,219.8,244.5C603.6,471.8,546.5,556.7,463.4,596.4z">
  </path>
  <path class="st3" d="M303.4,271.5c11.4-13.2,5.4-37.9-15.6-42.1c5.4-12.6,13.2-37.9,13.2-37.9s-61.4,96.2-66.8,98.1
		c-5.4,1.8-10.8-19.2-10.8-19.2c-11.4,43.9,19.2,49.9,22.9,36.1C263.1,302.2,292,284.2,303.4,271.5z">
  </path>
  <path class="st4" d="M251.1,295l31.3-53.5c0,0,18,9,9,23.5C280,281.8,251.1,295,251.1,295z">
  </path>
  <path class="st5" d="M637.9,542.8c-9,12-19.2,24.7-31.3,36.7c77.6-149.2,3.6-285.7,0.6-291.2c5.4,5.4,10.8,11.4,15.6,16.8
		C682.4,371.4,689.6,470.6,637.9,542.8z">
  </path>
  <path class="st5" d="M710.1,350.9c-27.1-72.8-65.6-134.7-150.4-190.7c-81.8-54.1-169.6-49.9-174.5-49.3c-0.6,0-1.2,0-1.2,0
		c3-1.2,6-1.8,9-2.4c18.6-6,42.7-10.8,66.8-13.8c63.8-9,128.1,12.6,172,59c0.6,0.6,0.6,0.6,1.2,1.2
		C683,207.8,708.9,273.9,710.1,350.9z">
  </path>
  <path class="st5" d="M540.4,53.2c-89.6-16.8-147.4-8.4-188.9,7.2c-1.2-4.8-5.4-14.4-9-22.3c-12.6,15-25.9,33.1-34.3,44.5
		c-22.9,15.6-32.5,30.7-32.5,30.7c13.2-45.1,51.7-78.8,98.7-87.2c13.2-2.4,27.7-3.6,43.3-3.6C459.2,23.1,500.7,33.3,540.4,53.2z">
  </path>
  <path class="st5" d="M209,168.7c-70.4-2.4-46.9-84.2-45.7-89C163.3,80.2,168.1,144,209,168.7z">
  </path>
  <path class="st5" d="M278.2,21.3c-54.2,32.5-43.4,110.1-43.4,110.1C183.1,52.6,274,23.1,278.2,21.3z">
  </path>
  <path class="st0" d="M189.1,190.3c3.6,3,7.2,8.4,3,16.2c-2.4,4.2-6,3.6-11.4,1.2c-7.2-3.6-50.5-28.9-89.6-54.7
		c44.5,15.6,89.6,32.5,96.9,36.1C187.9,189.1,188.5,189.7,189.1,190.3z">
  </path>
 </g>
</svg>
