<?xml version="1.0" encoding="UTF-8"?>
<svg xmlns="http://www.w3.org/2000/svg" width="56" height="34" viewBox="0 0 74.07 44.76">
  <g fill="#E4D00A" stroke-width="0">
    <path d="M71.67,7.95L58.85.5c-2.15-1.25-4.85.31-4.85,2.79v18.84l-9.1-5.24c-4.88-2.81-10.88-2.8-15.74.02l-9.06,5.24V3.28c0-2.49-2.69-4.04-4.85-2.79L2.4,7.94c-1.49.86-2.4,2.46-2.4,4.18v17.71c0,1.24.31,2.42.88,3.46h0c.58,1.07,1.42,1.98,2.48,2.66l6.61,4.22,5.06,3.22c3.04,1.93,6.95,1.78,9.83-.39l.38-.3s.07-.06.11-.08l7.63-5.82c2.23-1.71,5.88-1.71,8.12,0l7.61,5.8s.03.02.04.03l.47.37c2.87,2.17,6.79,2.32,9.83.39l5.06-3.23,6.63-4.22c1.04-.67,1.88-1.59,2.46-2.64s.89-2.23.89-3.47V12.13h0c0-1.72-.91-3.32-2.4-4.18h.01Z"/>
    <path d="M54.1,33.62v6.36c0,1.96-1.41,3.56-3.11,3.56-.67,0-1.51-.34-2.29-.93l-7.61-5.8c-2.23-1.71-5.88-1.71-8.12,0l-7.63,5.82c-.76.57-1.25.74-1.97.74-1.77.02-3.35-1.31-3.35-3.39v-6.34l10.9-7.04c3.74-2.41,8.52-2.41,12.25,0l10.92,6.88v.13h0Z"/>
    <path d="M54,22.13l.03,11.59-10.84-6.93c-3.73-2.39-8.51-2.39-12.25,0l-10.87,6.94.02-11.58,9.07-5.25c4.86-2.82,10.86-2.82,15.74-.02l9.1,5.24h0Z"/>
    <path d="M74.07,12.13v17.7c0,1.25-.31,2.42-.89,3.47l-19.19-11.17V3.28c0-2.49,2.7-4.04,4.85-2.79l12.82,7.46c1.49.86,2.4,2.46,2.4,4.18h0Z"/>
    <path d="M20.08,3.28v18.87L.88,33.31C.31,32.26,0,31.08,0,29.84V12.13C0,10.41.91,8.81,2.4,7.95L15.23.49c2.15-1.25,4.85.31,4.85,2.79h0Z"/>
    <path d="M50.72,43.32c1.7,0,3.3-1.34,3.3-3.28v-6.36s10.13,6.47,10.13,6.47l-5.12,3.26c-3.04,1.93-6.95,1.79-9.83-.39l-.48-.38c.72.49,1.33.68,2,.68h0Z"/>
    <path d="M73.18,33.31c-.58,1.05-1.42,1.97-2.46,2.64l-6.63,4.22-10.08-6.45-.03-11.59,19.19,11.18h0Z"/>
    <path d="M20.08,40.03c0,1.94,1.61,3.47,3.3,3.28.75-.09,1.34-.2,1.94-.66l-.46.36c-2.87,2.16-6.79,2.32-9.83.39l-5.06-3.23h0s10.11-6.46,10.11-6.46v6.31h0Z"/>
    <path d="M20.08,22.15v11.57l-10.11,6.45h0s-6.61-4.2-6.61-4.2c-1.05-.67-1.9-1.59-2.48-2.66l19.19-11.16h0Z"/>
  </g>
</svg>
